<?xml version="1.0" encoding="utf-8"?>
<!-- Generator: Adobe Illustrator 19.1.0, SVG Export Plug-In . SVG Version: 6.00 Build 0)  -->
<svg version="1.1" xmlns="http://www.w3.org/2000/svg" xmlns:xlink="http://www.w3.org/1999/xlink" x="0px" y="0px"
	 viewBox="0 0 218.725 203.847" style="enable-background:new 0 0 218.725 203.847;" xml:space="preserve">
<style type="text/css">
	.st0{opacity:0.11;fill:url(#SVGID_1_);}
	.st1{opacity:0.28;fill:url(#SVGID_2_);}
	.st2{fill:none;stroke:#000000;stroke-width:0.25;}
	.st3{fill:#FFFFFF;}
	.st4{fill:none;stroke:#006699;}
	.st5{fill:#006699;}
	.st6{fill:none;stroke:#000000;stroke-width:0.75;}
	.st7{fill:none;stroke:#19619C;}
	.st8{stroke:#000000;stroke-width:0.5;}
	.st9{fill:none;stroke:#006699;stroke-width:0.5;}
	.st10{fill:none;stroke:#131312;stroke-width:0.25;stroke-dasharray:2,2;}
	.st11{fill:none;stroke:#000000;stroke-width:0.5;}
	.st12{fill:#19619C;stroke:#19619C;stroke-width:0.5;}
</style>
<g id="_x3C_Layer_x3E_">
	<linearGradient id="SVGID_1_" gradientUnits="userSpaceOnUse" x1="13.0156" y1="49.7949" x2="164.9844" y2="49.7949">
		<stop  offset="0" style="stop-color:#FFFFFF"/>
		<stop  offset="0.1312" style="stop-color:#FAFFFF"/>
		<stop  offset="0.2812" style="stop-color:#ECFFFF"/>
		<stop  offset="0.4405" style="stop-color:#D6FFFE"/>
		<stop  offset="0.6062" style="stop-color:#B5FFFD"/>
		<stop  offset="0.7753" style="stop-color:#8DFFFC"/>
		<stop  offset="0.8258" style="stop-color:#7FFFFC"/>
	</linearGradient>
	<ellipse class="st0" cx="89" cy="49.795" rx="75.984" ry="15.25"/>
	<linearGradient id="SVGID_2_" gradientUnits="userSpaceOnUse" x1="165.0391" y1="93.084" x2="13.043" y2="93.084">
		<stop  offset="0" style="stop-color:#FFFFFF"/>
		<stop  offset="0.096" style="stop-color:#FAFEFF"/>
		<stop  offset="0.2059" style="stop-color:#ECFAFF"/>
		<stop  offset="0.3226" style="stop-color:#D5F4FF"/>
		<stop  offset="0.444" style="stop-color:#B5EBFF"/>
		<stop  offset="0.5692" style="stop-color:#8CE0FF"/>
		<stop  offset="0.6975" style="stop-color:#5AD2FF"/>
		<stop  offset="0.8258" style="stop-color:#1FC2FF"/>
	</linearGradient>
	<path class="st1" d="M89.04,136.209c41,0,64.999-43.405,75.999-86.25l-0.027,0.127c0,8.422-34.019,15.25-75.984,15.25
		c-41.965,0-75.984-6.828-75.984-15.25v-0.127c11,42.845,35,86.25,76,86.25"/>
	<g>
		<g>
			<line class="st2" x1="89.02" y1="200.076" x2="89.02" y2="7.659"/>
			<g>
				<path d="M89.02,9.005l-2.702,1.644l-0.061-0.092l1.75-4.406c0.338-1.535,0.675-3.07,1.013-4.605
					c0.338,1.535,0.675,3.07,1.013,4.605l1.75,4.406l-0.046,0.092L89.02,9.005z"/>
			</g>
		</g>
	</g>
	<g>
		<g>
			<path d="M4.481,197.473l2.707-3.158l-1.553-3.064h1.172l0.527,1.107c0.195,0.414,0.371,0.811,0.527,1.189l1.793-2.297h1.295
				l-2.613,3.146l1.57,3.076H8.735l-0.621-1.266c-0.133-0.27-0.283-0.604-0.451-1.002l-1.852,2.268H4.481z"/>
		</g>
		<g>
			<path d="M13.978,201.249h-0.703v-4.48c-0.169,0.162-0.391,0.323-0.666,0.484s-0.521,0.283-0.74,0.363v-0.68
				c0.393-0.185,0.737-0.409,1.031-0.672s0.502-0.518,0.625-0.766h0.453V201.249z"/>
		</g>
	</g>
	<g>
		<g>
			<path class="st3" d="M101.503,143.574l2.116,2.627l-0.088,0.078l-4.905-1.231c-1.671-0.142-3.342-0.283-5.013-0.425
				c1.576-0.573,3.152-1.146,4.728-1.718l4.413-2.469l0.104,0.036L101.503,143.574z"/>
		</g>
		<g>
			<line class="st4" x1="101.874" y1="143.525" x2="100.694" y2="143.682"/>
			<path class="st5" d="M101.503,143.574l2.116,2.627l-0.088,0.078l-4.905-1.231c-1.671-0.142-3.342-0.283-5.013-0.425
				c1.576-0.573,3.152-1.146,4.728-1.718l4.413-2.469l0.104,0.036L101.503,143.574z"/>
		</g>
	</g>
	<g>
		<g>
			<path class="st3" d="M49.164,150.696l-0.402,3.349l-0.117-0.009l-2.544-4.371c-1.065-1.295-2.131-2.59-3.196-3.885
				c1.511,0.728,3.021,1.457,4.532,2.185l4.849,1.435l0.047,0.099L49.164,150.696z"/>
		</g>
		<g>
			<line class="st4" x1="49.459" y1="150.928" x2="48.522" y2="150.192"/>
			<path class="st5" d="M49.164,150.696l-0.402,3.349l-0.117-0.009l-2.544-4.371c-1.065-1.295-2.131-2.59-3.196-3.885
				c1.511,0.728,3.021,1.457,4.532,2.185l4.849,1.435l0.047,0.099L49.164,150.696z"/>
		</g>
	</g>
	<g>
		<path d="M108.726,144.952v0.226c-0.385,0.223-0.671,0.456-0.858,0.7c-0.191,0.239-0.316,0.545-0.377,0.919
			c-0.065,0.401-0.097,0.734-0.097,0.998c0,0.414,0.041,0.789,0.122,1.125c0.085,0.377,0.203,0.688,0.353,0.931
			c0.154,0.268,0.333,0.473,0.536,0.615c0.203,0.138,0.46,0.237,0.772,0.298l-0.127-3.979c0-0.231,0.038-0.489,0.115-0.773
			c0.073-0.284,0.201-0.515,0.384-0.694c0.182-0.183,0.361-0.304,0.535-0.365c0.167-0.057,0.341-0.085,0.523-0.085
			c0.195,0,0.39,0.033,0.584,0.097c0.19,0.065,0.391,0.187,0.602,0.365c0.203,0.179,0.398,0.398,0.584,0.657
			c0.174,0.24,0.316,0.552,0.426,0.937c0.098,0.357,0.146,0.71,0.146,1.059c0,0.397-0.067,0.779-0.201,1.144
			c-0.126,0.365-0.304,0.69-0.536,0.974c-0.215,0.248-0.533,0.501-0.955,0.761c-0.43,0.251-0.862,0.377-1.296,0.377v2.641h-0.785
			v-2.629c-0.726-0.142-1.329-0.351-1.807-0.626c-0.511-0.272-0.852-0.72-1.022-1.345c-0.174-0.613-0.262-1.096-0.262-1.449
			c0-0.373,0.061-0.73,0.183-1.071c0.114-0.329,0.268-0.606,0.462-0.833c0.183-0.203,0.408-0.39,0.676-0.56
			c0.255-0.162,0.493-0.274,0.712-0.334C108.316,144.979,108.519,144.952,108.726,144.952z M109.809,147.387l0.152,3.414
			c0.215-0.041,0.464-0.107,0.749-0.201c0.183-0.061,0.373-0.215,0.572-0.462c0.215-0.292,0.343-0.491,0.384-0.597
			c0.073-0.187,0.124-0.34,0.152-0.462c0.008-0.028,0.02-0.085,0.034-0.17c0.014-0.085,0.023-0.144,0.027-0.176
			c0.008-0.049,0.012-0.148,0.012-0.298c0-0.28-0.024-0.562-0.073-0.846c-0.044-0.272-0.12-0.525-0.225-0.761
			c-0.097-0.215-0.231-0.42-0.401-0.615c-0.154-0.178-0.291-0.294-0.408-0.347c-0.13-0.041-0.226-0.061-0.286-0.061
			c-0.199,0-0.341,0.061-0.426,0.183c-0.085,0.138-0.148,0.355-0.188,0.651C109.833,146.934,109.809,147.184,109.809,147.387z"/>
	</g>
	<g>
		<path d="M63.766,167.259c-0.487,0.56-0.997,0.839-1.528,0.839c-0.475,0-0.87-0.175-1.186-0.526s-0.474-0.859-0.474-1.526
			c0-0.61,0.125-1.167,0.375-1.671c0.25-0.505,0.562-0.883,0.938-1.134c0.375-0.251,0.752-0.377,1.129-0.377
			c0.623,0,1.093,0.3,1.41,0.901l0.566-2.693h0.849l-1.443,6.914h-0.788L63.766,167.259z M61.427,165.887
			c0,0.349,0.034,0.624,0.104,0.825s0.187,0.369,0.354,0.502c0.167,0.134,0.366,0.2,0.599,0.2c0.387,0,0.737-0.201,1.052-0.604
			c0.421-0.534,0.632-1.195,0.632-1.98c0-0.396-0.104-0.706-0.311-0.929s-0.469-0.335-0.783-0.335c-0.204,0-0.391,0.046-0.559,0.137
			c-0.168,0.091-0.335,0.246-0.5,0.465c-0.165,0.218-0.304,0.496-0.417,0.832S61.427,165.632,61.427,165.887z"/>
		<path d="M65.133,167.985l3.301-3.495l-1.957-3.419h1.019l0.891,1.565c0.236,0.412,0.371,0.653,0.406,0.722
			c0.082,0.154,0.171,0.338,0.269,0.552c0.233-0.314,0.593-0.728,1.08-1.24l1.519-1.599h1.208l-3.344,3.57l1.896,3.344h-1.005
			l-1.122-2.023c-0.11-0.198-0.238-0.453-0.382-0.764c-0.169,0.229-0.377,0.473-0.623,0.731l-1.929,2.056H65.133z"/>
	</g>
	<g>
		<path d="M65.645,177.052c-0.487,0.56-0.997,0.839-1.528,0.839c-0.475,0-0.87-0.175-1.186-0.526s-0.474-0.859-0.474-1.526
			c0-0.61,0.125-1.167,0.375-1.671c0.25-0.505,0.562-0.883,0.938-1.134c0.375-0.251,0.752-0.377,1.129-0.377
			c0.623,0,1.093,0.3,1.41,0.901l0.566-2.693h0.849l-1.443,6.914h-0.788L65.645,177.052z M63.306,175.679
			c0,0.349,0.034,0.624,0.104,0.825s0.187,0.369,0.354,0.502c0.167,0.134,0.366,0.2,0.599,0.2c0.387,0,0.737-0.201,1.052-0.604
			c0.421-0.534,0.632-1.195,0.632-1.98c0-0.396-0.104-0.706-0.311-0.929s-0.469-0.335-0.783-0.335c-0.204,0-0.391,0.046-0.559,0.137
			c-0.168,0.091-0.335,0.246-0.5,0.465c-0.165,0.218-0.304,0.496-0.417,0.832S63.306,175.425,63.306,175.679z"/>
		<path d="M69.634,177.084l-0.142,0.698c-0.204,0.053-0.402,0.08-0.594,0.08c-0.339,0-0.61-0.083-0.811-0.25
			c-0.151-0.125-0.227-0.297-0.227-0.514c0-0.11,0.041-0.363,0.123-0.759l0.608-2.91h-0.675l0.137-0.66h0.675l0.259-1.231
			l0.976-0.589l-0.382,1.82h0.839l-0.142,0.66h-0.834l-0.58,2.768c-0.072,0.353-0.108,0.563-0.108,0.632
			c0,0.101,0.029,0.178,0.087,0.231s0.153,0.08,0.286,0.08C69.318,177.141,69.486,177.122,69.634,177.084z"/>
	</g>
	<line class="st6" x1="60.441" y1="169.565" x2="71.508" y2="169.565"/>
	<g>
		<g>
			<path d="M207.793,147.393l2.647-3.208l-1.61-3.035l1.172-0.022l0.548,1.098c0.203,0.41,0.387,0.803,0.55,1.179l1.749-2.33
				l1.295-0.024l-2.554,3.195l1.628,3.046l-1.172,0.022l-0.645-1.254c-0.138-0.267-0.295-0.598-0.47-0.993l-1.809,2.302
				L207.793,147.393z"/>
		</g>
		<g>
			<path d="M218.303,149.82v0.676h-3.785c-0.005-0.169,0.022-0.332,0.082-0.488c0.097-0.258,0.251-0.512,0.463-0.762
				s0.519-0.539,0.92-0.867c0.622-0.51,1.043-0.915,1.262-1.213s0.328-0.58,0.328-0.846c0-0.279-0.1-0.514-0.299-0.705
				s-0.459-0.287-0.779-0.287c-0.339,0-0.609,0.102-0.812,0.305s-0.306,0.484-0.309,0.844l-0.723-0.074
				c0.05-0.539,0.235-0.95,0.559-1.232s0.757-0.424,1.301-0.424c0.55,0,0.984,0.152,1.305,0.457s0.48,0.682,0.48,1.133
				c0,0.229-0.047,0.455-0.141,0.676s-0.249,0.455-0.467,0.699s-0.579,0.581-1.084,1.008c-0.422,0.354-0.692,0.594-0.812,0.721
				s-0.219,0.253-0.297,0.381H218.303z"/>
		</g>
	</g>
	<g>
		<g>
			<line class="st2" x1="208.386" y1="136.295" x2="0" y2="136.295"/>
			<g>
				<path d="M207.04,136.295l-1.644,2.702l0.092,0.061l4.406-1.75c1.535-0.338,3.07-0.675,4.605-1.013
					c-1.535-0.338-3.07-0.675-4.605-1.013l-4.406-1.75l-0.092,0.046L207.04,136.295z"/>
			</g>
		</g>
	</g>
	<g>
		<g>
			<g>
				<path class="st7" d="M89.067,136.366c9.447,0,9.487-5.374-0.08-5.374"/>
				<path class="st7" d="M88.907,144.471c-21.402,0-21.491-13.479,0.181-13.479"/>
			</g>
			<path class="st7" d="M88.666,144.471c40.067,0,40.236-23.156-0.337-23.156"/>
		</g>
		<path class="st7" d="M88.035,158.514c-62.46,0-62.723-37.198,0.524-37.198"/>
	</g>
	<path class="st7" d="M87.978,158.514c25.998,0,44.636-4.547,55.866-11.056"/>
	<circle class="st8" cx="120.812" cy="155.482" r="1.078"/>
	<g>
		<path d="M120.114,168.103l4.869-8.59h1.354l1.418,8.59h-1.113l-0.416-2.473h-3.475l-1.377,2.473H120.114z M123.243,164.746h2.842
			l-0.334-2.156c-0.129-0.855-0.209-1.568-0.24-2.139c-0.195,0.492-0.48,1.076-0.855,1.752L123.243,164.746z"/>
	</g>
	<circle class="st8" cx="120.875" cy="91.711" r="1.078"/>
	<g>
		<g>
			<line class="st2" x1="9.923" y1="185.035" x2="120.121" y2="117.302"/>
			<g>
				<path d="M11.07,184.33l-0.015-3.163l-0.111-0.004l-2.837,3.798c-1.131,1.091-2.262,2.183-3.393,3.275
					c1.485-0.516,2.969-1.032,4.454-1.548l4.67-0.816l0.054-0.088L11.07,184.33z"/>
			</g>
		</g>
	</g>
	<ellipse class="st9" cx="89.016" cy="49.92" rx="75.984" ry="15.25"/>
	<g>
		<path d="M79.391,10.295l-1.652-8.59h1.107l0.996,5.121c0.184,0.93,0.303,1.68,0.357,2.25c0.359-0.734,0.654-1.316,0.885-1.746
			l3.064-5.625h1.184l-4.711,8.59H79.391z"/>
	</g>
	<line class="st10" x1="120.916" y1="92.753" x2="120.916" y2="155.003"/>
	<g>
		<path d="M163.423,65.243l0.863,0.08c-0.006,0.195,0.017,0.341,0.071,0.439c0.053,0.097,0.138,0.173,0.254,0.226
			c0.154,0.069,0.354,0.104,0.599,0.104c0.516,0,0.886-0.134,1.113-0.401c0.148-0.179,0.285-0.569,0.41-1.17l0.085-0.405
			c-0.443,0.45-0.915,0.674-1.415,0.674c-0.506,0-0.93-0.187-1.271-0.559c-0.341-0.373-0.512-0.9-0.512-1.582
			c0-0.562,0.134-1.08,0.403-1.551c0.269-0.472,0.588-0.828,0.959-1.068s0.753-0.361,1.146-0.361c0.657,0,1.163,0.312,1.519,0.934
			l0.17-0.82h0.783l-1.009,4.834c-0.11,0.531-0.254,0.945-0.434,1.243c-0.179,0.297-0.429,0.527-0.748,0.691
			c-0.319,0.163-0.688,0.245-1.106,0.245c-0.402,0-0.749-0.052-1.04-0.156c-0.291-0.104-0.508-0.255-0.651-0.455
			s-0.214-0.428-0.214-0.686C163.399,65.419,163.407,65.334,163.423,65.243z M164.489,62.574c0,0.342,0.033,0.601,0.099,0.773
			c0.094,0.242,0.229,0.427,0.403,0.554c0.174,0.127,0.368,0.191,0.582,0.191c0.28,0,0.558-0.099,0.835-0.295
			c0.276-0.196,0.5-0.5,0.672-0.913c0.171-0.412,0.257-0.805,0.257-1.179c0-0.412-0.114-0.739-0.342-0.983s-0.51-0.366-0.846-0.366
			c-0.208,0-0.409,0.056-0.604,0.167c-0.195,0.112-0.376,0.281-0.544,0.509c-0.168,0.228-0.295,0.501-0.382,0.818
			C164.532,62.17,164.489,62.411,164.489,62.574z"/>
		<path d="M168.842,64.791l1.047-5.008h0.754l-0.212,1.023c0.258-0.387,0.51-0.673,0.757-0.858c0.247-0.186,0.499-0.278,0.757-0.278
			c0.17,0,0.379,0.062,0.628,0.184l-0.35,0.792c-0.147-0.106-0.31-0.16-0.485-0.16c-0.299,0-0.605,0.167-0.92,0.5
			c-0.314,0.333-0.561,0.932-0.74,1.797l-0.424,2.009H168.842z"/>
		<path d="M175.435,64.168c-0.296,0.255-0.58,0.441-0.854,0.559c-0.273,0.118-0.566,0.177-0.877,0.177
			c-0.463,0-0.835-0.136-1.118-0.408s-0.425-0.62-0.425-1.044c0-0.28,0.064-0.527,0.191-0.743s0.296-0.388,0.507-0.519
			c0.211-0.13,0.469-0.224,0.773-0.28c0.192-0.038,0.556-0.068,1.092-0.09s0.921-0.079,1.153-0.169
			c0.065-0.233,0.099-0.426,0.099-0.58c0-0.198-0.072-0.354-0.217-0.467c-0.198-0.157-0.487-0.235-0.867-0.235
			c-0.358,0-0.652,0.079-0.88,0.238c-0.229,0.159-0.394,0.384-0.498,0.677l-0.862-0.075c0.176-0.497,0.455-0.877,0.837-1.142
			c0.382-0.264,0.863-0.396,1.445-0.396c0.619,0,1.109,0.148,1.472,0.443c0.276,0.22,0.415,0.506,0.415,0.858
			c0,0.267-0.04,0.577-0.118,0.929l-0.278,1.245c-0.088,0.396-0.132,0.719-0.132,0.967c0,0.157,0.034,0.384,0.104,0.679h-0.863
			C175.486,64.627,175.453,64.419,175.435,64.168z M175.75,62.253c-0.119,0.047-0.247,0.083-0.384,0.108
			c-0.137,0.025-0.365,0.052-0.687,0.08c-0.496,0.044-0.847,0.1-1.052,0.167c-0.204,0.068-0.358,0.175-0.462,0.323
			c-0.104,0.147-0.155,0.311-0.155,0.49c0,0.239,0.082,0.436,0.247,0.589c0.165,0.154,0.4,0.231,0.705,0.231
			c0.283,0,0.555-0.075,0.816-0.224c0.261-0.149,0.467-0.358,0.617-0.625C175.548,63.127,175.666,62.747,175.75,62.253z"/>
		<path d="M180.806,64.064c-0.487,0.56-0.996,0.839-1.527,0.839c-0.476,0-0.87-0.175-1.187-0.526
			c-0.315-0.351-0.474-0.859-0.474-1.526c0-0.61,0.125-1.167,0.375-1.671c0.25-0.505,0.562-0.883,0.938-1.134
			c0.375-0.251,0.752-0.377,1.129-0.377c0.623,0,1.093,0.3,1.41,0.901l0.566-2.693h0.849l-1.443,6.914h-0.787L180.806,64.064z
			 M178.467,62.692c0,0.349,0.034,0.624,0.104,0.825s0.188,0.369,0.354,0.502c0.167,0.134,0.366,0.2,0.6,0.2
			c0.387,0,0.737-0.201,1.052-0.604c0.421-0.534,0.632-1.195,0.632-1.98c0-0.396-0.104-0.706-0.312-0.929
			c-0.207-0.223-0.469-0.335-0.783-0.335c-0.204,0-0.391,0.046-0.559,0.137c-0.168,0.091-0.335,0.246-0.5,0.465
			c-0.165,0.218-0.304,0.496-0.417,0.832S178.467,62.438,178.467,62.692z"/>
		<path d="M187.691,64.791l-1.33-6.914h0.892l0.802,4.122c0.147,0.749,0.243,1.352,0.287,1.811c0.289-0.591,0.526-1.06,0.712-1.405
			l2.467-4.527h0.953l-3.792,6.914H187.691z"/>
	</g>
	<g>
		<g>
			<path class="st3" d="M82.559,165.523l3.622,3.533l-0.118,0.131l-7.525-0.956c-2.513,0.088-5.027,0.177-7.541,0.265
				c2.245-1.135,4.489-2.27,6.733-3.406l6.13-4.468l0.161,0.035L82.559,165.523z"/>
		</g>
		<g>
			<line class="st11" x1="120.814" y1="155.686" x2="81.373" y2="165.828"/>
			<path d="M81.966,165.675l1.811,1.766l-0.059,0.066l-3.762-0.478c-1.257,0.044-2.514,0.088-3.771,0.132
				c1.122-0.567,2.245-1.135,3.367-1.703l3.065-2.234l0.081,0.018L81.966,165.675z"/>
		</g>
	</g>
	<g>
		<g>
			<path class="st3" d="M153.9,129.95l-4.728-1.804l0.056-0.168l7.287-2.11c2.271-1.079,4.543-2.158,6.816-3.237
				c-1.609,1.933-3.219,3.866-4.828,5.799l-3.853,6.534l-0.161,0.032L153.9,129.95z"/>
		</g>
		<g>
			<line class="st11" x1="121.123" y1="155.386" x2="154.867" y2="129.199"/>
			<path d="M154.383,129.575l-2.364-0.902l0.028-0.084l3.643-1.055c1.136-0.54,2.272-1.08,3.408-1.619
				c-0.805,0.966-1.609,1.933-2.413,2.899l-1.927,3.267l-0.081,0.016L154.383,129.575z"/>
		</g>
	</g>
	<g>
		<path d="M163.422,130.497l0.863,0.08c-0.006,0.195,0.017,0.341,0.071,0.439c0.053,0.097,0.138,0.173,0.254,0.226
			c0.154,0.069,0.354,0.104,0.599,0.104c0.516,0,0.886-0.134,1.113-0.401c0.148-0.179,0.285-0.569,0.41-1.17l0.085-0.405
			c-0.443,0.45-0.915,0.674-1.415,0.674c-0.506,0-0.93-0.187-1.271-0.559c-0.341-0.373-0.512-0.9-0.512-1.582
			c0-0.562,0.134-1.08,0.403-1.551c0.269-0.472,0.588-0.828,0.959-1.068s0.753-0.361,1.146-0.361c0.657,0,1.163,0.312,1.519,0.934
			l0.17-0.82h0.783l-1.009,4.834c-0.11,0.531-0.254,0.945-0.434,1.243c-0.179,0.297-0.429,0.527-0.748,0.691
			c-0.319,0.163-0.688,0.245-1.106,0.245c-0.402,0-0.749-0.052-1.04-0.156c-0.291-0.104-0.508-0.255-0.651-0.455
			s-0.214-0.428-0.214-0.686C163.399,130.673,163.407,130.588,163.422,130.497z M164.488,127.828c0,0.342,0.033,0.601,0.099,0.773
			c0.094,0.242,0.229,0.427,0.403,0.554c0.174,0.127,0.368,0.191,0.582,0.191c0.28,0,0.558-0.099,0.835-0.295
			c0.276-0.196,0.5-0.5,0.672-0.913c0.171-0.412,0.257-0.805,0.257-1.179c0-0.412-0.114-0.739-0.342-0.983s-0.51-0.366-0.846-0.366
			c-0.208,0-0.409,0.056-0.604,0.167c-0.195,0.112-0.376,0.281-0.544,0.509c-0.168,0.228-0.295,0.501-0.382,0.818
			C164.531,127.424,164.488,127.665,164.488,127.828z"/>
		<path d="M168.841,130.044l1.047-5.008h0.754l-0.212,1.023c0.258-0.387,0.51-0.673,0.757-0.858
			c0.246-0.186,0.499-0.278,0.757-0.278c0.17,0,0.379,0.062,0.627,0.184l-0.349,0.792c-0.148-0.106-0.31-0.16-0.486-0.16
			c-0.299,0-0.604,0.167-0.919,0.5c-0.314,0.333-0.561,0.932-0.74,1.797l-0.424,2.009H168.841z"/>
		<path d="M175.434,129.422c-0.295,0.255-0.58,0.441-0.854,0.559c-0.273,0.118-0.565,0.177-0.877,0.177
			c-0.462,0-0.835-0.136-1.117-0.408c-0.283-0.272-0.425-0.62-0.425-1.044c0-0.28,0.063-0.527,0.191-0.743
			c0.127-0.215,0.296-0.388,0.507-0.519c0.21-0.13,0.468-0.224,0.773-0.28c0.191-0.038,0.556-0.068,1.092-0.09
			c0.535-0.022,0.92-0.079,1.152-0.169c0.066-0.233,0.1-0.426,0.1-0.58c0-0.198-0.072-0.354-0.217-0.467
			c-0.198-0.157-0.487-0.235-0.868-0.235c-0.358,0-0.651,0.079-0.88,0.238c-0.228,0.159-0.394,0.384-0.497,0.677l-0.863-0.075
			c0.176-0.497,0.455-0.877,0.837-1.142c0.383-0.264,0.864-0.396,1.446-0.396c0.619,0,1.109,0.148,1.471,0.443
			c0.276,0.22,0.415,0.506,0.415,0.858c0,0.267-0.039,0.577-0.118,0.929l-0.277,1.245c-0.089,0.396-0.133,0.719-0.133,0.967
			c0,0.157,0.035,0.384,0.104,0.679h-0.863C175.486,129.881,175.453,129.673,175.434,129.422z M175.75,127.507
			c-0.119,0.047-0.248,0.083-0.385,0.108c-0.137,0.025-0.365,0.052-0.686,0.08c-0.497,0.044-0.848,0.1-1.052,0.167
			c-0.204,0.068-0.358,0.175-0.462,0.323c-0.104,0.147-0.156,0.311-0.156,0.49c0,0.239,0.083,0.436,0.248,0.589
			c0.165,0.154,0.399,0.231,0.705,0.231c0.282,0,0.555-0.075,0.815-0.224s0.467-0.358,0.618-0.625
			C175.547,128.381,175.665,128.001,175.75,127.507z"/>
		<path d="M180.806,129.318c-0.487,0.56-0.997,0.839-1.528,0.839c-0.475,0-0.87-0.175-1.186-0.526
			c-0.316-0.351-0.475-0.859-0.475-1.526c0-0.61,0.125-1.167,0.375-1.671c0.25-0.505,0.562-0.883,0.938-1.134
			s0.752-0.377,1.13-0.377c0.622,0,1.092,0.3,1.41,0.901l0.565-2.693h0.849l-1.442,6.914h-0.788L180.806,129.318z M178.467,127.946
			c0,0.349,0.034,0.624,0.104,0.825s0.187,0.369,0.354,0.502s0.366,0.2,0.599,0.2c0.387,0,0.737-0.201,1.052-0.604
			c0.422-0.534,0.632-1.195,0.632-1.98c0-0.396-0.104-0.706-0.311-0.929c-0.208-0.223-0.469-0.335-0.783-0.335
			c-0.204,0-0.391,0.046-0.559,0.137c-0.169,0.091-0.335,0.246-0.5,0.465c-0.165,0.218-0.305,0.496-0.418,0.832
			S178.467,127.691,178.467,127.946z"/>
		<path d="M187.69,130.044l-1.329-6.914h0.891l0.802,4.122c0.147,0.749,0.244,1.352,0.288,1.811c0.289-0.591,0.526-1.06,0.712-1.405
			l2.467-4.527h0.952l-3.792,6.914H187.69z"/>
	</g>
	<g>
		<g>
			<path class="st3" d="M153.738,66.186l-4.727-1.804l0.056-0.168l7.287-2.11c2.271-1.079,4.543-2.158,6.816-3.237
				c-1.609,1.933-3.219,3.866-4.828,5.799l-3.853,6.534l-0.161,0.032L153.738,66.186z"/>
		</g>
		<g>
			<line class="st11" x1="120.831" y1="91.723" x2="154.705" y2="65.436"/>
			<path d="M154.221,65.811l-2.364-0.902l0.028-0.084l3.643-1.055c1.136-0.54,2.272-1.08,3.408-1.619
				c-0.805,0.966-1.609,1.933-2.414,2.9l-1.926,3.267l-0.081,0.016L154.221,65.811z"/>
		</g>
	</g>
	<path class="st4" d="M13.031,50.076c11,42.845,35,86.25,76,86.25"/>
	<path class="st4" d="M165.028,50.076c-11,42.845-35,86.25-76,86.25"/>
	<line class="st10" x1="158.812" y1="62.212" x2="158.812" y2="126.087"/>
	<path class="st11" d="M111.167,158.322c0.377-4.223,2.376-7.784,5.761-9.438c3.341-1.634,7.319-1.061,10.85,1.163"/>
	<g>
		<path d="M81.996,129.554c0-1.016,0.104-1.833,0.313-2.452s0.52-1.097,0.932-1.433s0.931-0.504,1.556-0.504
			c0.461,0,0.865,0.093,1.213,0.278s0.635,0.453,0.861,0.803s0.404,0.775,0.533,1.277s0.193,1.179,0.193,2.03
			c0,1.008-0.104,1.821-0.311,2.44s-0.517,1.098-0.929,1.436s-0.933,0.507-1.562,0.507c-0.828,0-1.479-0.297-1.951-0.891
			C82.279,132.331,81.996,131.167,81.996,129.554z M83.08,129.554c0,1.41,0.165,2.349,0.495,2.815s0.737,0.7,1.222,0.7
			s0.892-0.234,1.222-0.703s0.495-1.406,0.495-2.812c0-1.414-0.165-2.354-0.495-2.818s-0.741-0.697-1.233-0.697
			c-0.484,0-0.871,0.205-1.16,0.615C83.262,127.177,83.08,128.144,83.08,129.554z"/>
	</g>
	<circle class="st12" cx="89.025" cy="136.408" r="1.516"/>
	<g>
		<path d="M23.481,54.237l-1.557-8.091h1.043l0.938,4.824c0.173,0.876,0.285,1.583,0.337,2.12c0.338-0.692,0.616-1.24,0.833-1.645
			l2.887-5.298h1.115l-4.438,8.091H23.481z"/>
		<path d="M30.706,56.616c-0.548-0.692-1.012-1.501-1.391-2.429c-0.379-0.927-0.569-1.888-0.569-2.881
			c0-0.876,0.142-1.715,0.425-2.517c0.331-0.931,0.842-1.858,1.534-2.782h0.712c-0.445,0.766-0.739,1.312-0.883,1.64
			c-0.225,0.507-0.401,1.038-0.53,1.589c-0.159,0.688-0.237,1.38-0.237,2.075c0,1.77,0.55,3.538,1.65,5.304H30.706z"/>
		<path d="M31.81,54.237l2.55-2.975l-1.462-2.886H34l0.497,1.043c0.184,0.39,0.35,0.764,0.497,1.121l1.689-2.164h1.22l-2.461,2.964
			l1.479,2.897h-1.104l-0.585-1.192c-0.125-0.254-0.267-0.568-0.425-0.943l-1.744,2.136H31.81z"/>
		<path d="M41.231,54.237l0.237-1.131h1.137l-0.205,0.988c-0.125,0.592-0.319,1.027-0.582,1.303s-0.573,0.434-0.93,0.475
			l0.094-0.436c0.438-0.122,0.727-0.521,0.867-1.198H41.231z"/>
		<path d="M43.742,54.237l2.55-2.975l-1.462-2.886h1.104l0.497,1.043c0.184,0.39,0.35,0.764,0.497,1.121l1.689-2.164h1.22
			l-2.461,2.964l1.479,2.897h-1.104l-0.585-1.192c-0.125-0.254-0.267-0.568-0.425-0.943l-1.744,2.136H43.742z"/>
		<path d="M53.948,56.616h-0.712c1.101-1.766,1.65-3.534,1.65-5.304c0-0.692-0.079-1.378-0.237-2.059
			c-0.125-0.552-0.3-1.082-0.524-1.59c-0.144-0.331-0.439-0.883-0.889-1.656h0.712c0.691,0.924,1.203,1.851,1.534,2.782
			c0.283,0.802,0.425,1.641,0.425,2.517c0,0.993-0.19,1.954-0.571,2.881S54.492,55.924,53.948,56.616z"/>
	</g>
	<g>
		<path d="M39.644,57.504h-0.617v-3.933c-0.148,0.142-0.344,0.283-0.584,0.425c-0.241,0.142-0.458,0.248-0.65,0.319v-0.596
			c0.345-0.163,0.647-0.359,0.905-0.59s0.441-0.455,0.548-0.672h0.398V57.504z"/>
	</g>
	<g>
		<path d="M52.768,56.911v0.593h-3.323c-0.004-0.148,0.02-0.292,0.072-0.429c0.084-0.226,0.22-0.449,0.406-0.668
			c0.186-0.219,0.456-0.473,0.808-0.761c0.546-0.448,0.916-0.803,1.107-1.064s0.288-0.509,0.288-0.743
			c0-0.244-0.087-0.451-0.263-0.619c-0.175-0.168-0.403-0.252-0.684-0.252c-0.297,0-0.535,0.089-0.713,0.267
			c-0.178,0.179-0.269,0.425-0.271,0.741l-0.634-0.065c0.043-0.473,0.207-0.834,0.49-1.082c0.284-0.248,0.664-0.372,1.142-0.372
			c0.482,0,0.864,0.134,1.145,0.401s0.422,0.599,0.422,0.994c0,0.201-0.042,0.399-0.124,0.593c-0.083,0.194-0.219,0.399-0.41,0.614
			s-0.508,0.51-0.952,0.885c-0.37,0.311-0.608,0.522-0.713,0.633c-0.105,0.111-0.192,0.222-0.261,0.334H52.768z"/>
	</g>
</g>
<g id="_x3C_Layer_x3E__1_">
	<g>
	</g>
</g>
</svg>
