<?xml version="1.0" encoding="utf-8"?>
<!-- Generator: Adobe Illustrator 19.1.0, SVG Export Plug-In . SVG Version: 6.00 Build 0)  -->
<svg version="1.1" xmlns="http://www.w3.org/2000/svg" xmlns:xlink="http://www.w3.org/1999/xlink" x="0px" y="0px"
	 viewBox="0 0 219.946 203.257" style="enable-background:new 0 0 219.946 203.257;" xml:space="preserve">
<style type="text/css">
	.st0{fill:none;stroke:#000000;stroke-width:0.25;}
	.st1{fill:#FFFFFF;}
	.st2{fill:none;stroke:#006699;}
	.st3{fill:#006699;}
	.st4{fill:none;stroke:#000000;stroke-width:0.5;}
	.st5{fill:none;stroke:#000000;stroke-width:0.75;}
	.st6{fill:#19619C;stroke:#19619C;stroke-width:0.5;}
	.st7{fill:none;stroke:#19619C;}
	.st8{stroke:#000000;stroke-width:0.5;}
</style>
<g>
	<g>
		<path d="M169.923,30.706l0.863,0.08c-0.006,0.195,0.017,0.341,0.071,0.439c0.053,0.097,0.138,0.173,0.254,0.226
			c0.154,0.069,0.354,0.104,0.599,0.104c0.515,0,0.886-0.134,1.113-0.401c0.147-0.179,0.284-0.569,0.41-1.17l0.085-0.405
			c-0.443,0.45-0.915,0.674-1.415,0.674c-0.506,0-0.93-0.187-1.271-0.559c-0.341-0.373-0.512-0.9-0.512-1.582
			c0-0.562,0.134-1.08,0.403-1.551c0.269-0.472,0.588-0.828,0.959-1.068s0.753-0.361,1.146-0.361c0.657,0,1.163,0.312,1.519,0.934
			l0.17-0.82h0.782l-1.009,4.834c-0.11,0.531-0.255,0.945-0.434,1.243c-0.18,0.297-0.429,0.527-0.748,0.691
			c-0.318,0.163-0.688,0.245-1.105,0.245c-0.402,0-0.749-0.052-1.04-0.156c-0.291-0.104-0.508-0.255-0.651-0.455
			s-0.214-0.428-0.214-0.686C169.899,30.882,169.907,30.797,169.923,30.706z M170.989,28.037c0,0.342,0.033,0.601,0.099,0.773
			c0.094,0.242,0.229,0.427,0.403,0.554c0.174,0.127,0.368,0.191,0.582,0.191c0.28,0,0.559-0.099,0.835-0.295s0.501-0.5,0.672-0.913
			c0.172-0.412,0.257-0.805,0.257-1.179c0-0.412-0.113-0.739-0.342-0.983c-0.228-0.244-0.51-0.366-0.847-0.366
			c-0.207,0-0.408,0.056-0.604,0.167c-0.195,0.112-0.376,0.281-0.544,0.509c-0.168,0.228-0.295,0.501-0.382,0.818
			C171.032,27.633,170.989,27.874,170.989,28.037z"/>
		<path d="M175.342,30.253l1.047-5.008h0.755l-0.213,1.023c0.258-0.387,0.51-0.673,0.757-0.858s0.499-0.278,0.757-0.278
			c0.17,0,0.379,0.062,0.628,0.184l-0.35,0.792c-0.147-0.106-0.31-0.16-0.485-0.16c-0.299,0-0.605,0.167-0.92,0.5
			c-0.314,0.333-0.561,0.932-0.74,1.797l-0.425,2.009H175.342z"/>
		<path d="M181.935,29.631c-0.296,0.255-0.58,0.441-0.854,0.559c-0.273,0.118-0.566,0.177-0.877,0.177
			c-0.463,0-0.835-0.136-1.118-0.408s-0.425-0.62-0.425-1.044c0-0.28,0.064-0.527,0.191-0.743s0.296-0.388,0.507-0.519
			c0.211-0.13,0.469-0.224,0.773-0.28c0.192-0.038,0.556-0.068,1.092-0.09s0.921-0.079,1.153-0.169
			c0.065-0.233,0.099-0.426,0.099-0.58c0-0.198-0.072-0.354-0.217-0.467c-0.198-0.157-0.487-0.235-0.867-0.235
			c-0.358,0-0.652,0.079-0.88,0.238c-0.229,0.159-0.394,0.384-0.498,0.677l-0.862-0.075c0.176-0.497,0.455-0.877,0.837-1.142
			c0.382-0.264,0.863-0.396,1.445-0.396c0.619,0,1.109,0.148,1.472,0.443c0.276,0.22,0.415,0.506,0.415,0.858
			c0,0.267-0.04,0.577-0.118,0.929l-0.278,1.245c-0.088,0.396-0.132,0.719-0.132,0.967c0,0.157,0.034,0.384,0.104,0.679h-0.863
			C181.986,30.09,181.953,29.882,181.935,29.631z M182.25,27.716c-0.119,0.047-0.247,0.083-0.384,0.108
			c-0.137,0.025-0.365,0.052-0.687,0.08c-0.496,0.044-0.847,0.1-1.052,0.167c-0.204,0.068-0.358,0.175-0.462,0.323
			c-0.104,0.147-0.155,0.311-0.155,0.49c0,0.239,0.082,0.436,0.247,0.589c0.165,0.154,0.4,0.231,0.705,0.231
			c0.283,0,0.555-0.075,0.816-0.224c0.261-0.149,0.467-0.358,0.617-0.625C182.048,28.59,182.166,28.21,182.25,27.716z"/>
		<path d="M187.306,29.527c-0.487,0.56-0.996,0.839-1.527,0.839c-0.476,0-0.87-0.175-1.187-0.526
			c-0.315-0.351-0.474-0.859-0.474-1.526c0-0.61,0.125-1.167,0.375-1.671c0.25-0.505,0.562-0.883,0.938-1.134
			c0.375-0.251,0.752-0.377,1.129-0.377c0.623,0,1.093,0.3,1.41,0.901l0.566-2.693h0.849l-1.443,6.914h-0.787L187.306,29.527z
			 M184.967,28.155c0,0.349,0.034,0.624,0.104,0.825s0.188,0.369,0.354,0.502c0.167,0.134,0.366,0.2,0.6,0.2
			c0.387,0,0.737-0.201,1.052-0.604c0.421-0.534,0.632-1.195,0.632-1.98c0-0.396-0.104-0.706-0.312-0.929
			c-0.207-0.223-0.469-0.335-0.783-0.335c-0.204,0-0.391,0.046-0.559,0.137c-0.168,0.091-0.335,0.246-0.5,0.465
			c-0.165,0.218-0.304,0.496-0.417,0.832S184.967,27.9,184.967,28.155z"/>
		<path d="M194.191,30.253l-1.33-6.914h0.892l0.802,4.122c0.147,0.749,0.243,1.352,0.287,1.811c0.289-0.591,0.526-1.06,0.712-1.405
			l2.467-4.527h0.953l-3.792,6.914H194.191z"/>
	</g>
	<g>
		<path d="M208.981,124.436l2.707-3.158l-1.553-3.064h1.172l0.527,1.107c0.195,0.414,0.371,0.811,0.527,1.189l1.793-2.297h1.295
			l-2.613,3.146l1.57,3.076h-1.172l-0.621-1.266c-0.133-0.27-0.283-0.604-0.451-1.002l-1.852,2.268H208.981z"/>
	</g>
	<g>
		<g>
			<line class="st0" x1="90.082" y1="203.257" x2="90.082" y2="9.372"/>
			<g>
				<path d="M90.082,10.718l-2.702,1.644l-0.061-0.092l1.75-4.406c0.338-1.535,0.675-3.07,1.013-4.605
					c0.338,1.535,0.675,3.07,1.013,4.605l1.75,4.406L92.8,12.362L90.082,10.718z"/>
			</g>
		</g>
	</g>
	<g>
		<path d="M92.496,120.767c0-1.016,0.104-1.833,0.313-2.452s0.52-1.097,0.932-1.433s0.931-0.504,1.556-0.504
			c0.461,0,0.865,0.093,1.213,0.278s0.635,0.453,0.861,0.803s0.404,0.775,0.533,1.277s0.193,1.179,0.193,2.03
			c0,1.008-0.104,1.821-0.311,2.44s-0.517,1.098-0.929,1.436s-0.933,0.507-1.562,0.507c-0.828,0-1.479-0.297-1.951-0.891
			C92.779,123.544,92.496,122.38,92.496,120.767z M93.58,120.767c0,1.41,0.165,2.349,0.495,2.815s0.737,0.7,1.222,0.7
			s0.892-0.234,1.222-0.703s0.495-1.406,0.495-2.812c0-1.414-0.165-2.354-0.495-2.818s-0.741-0.697-1.233-0.697
			c-0.484,0-0.871,0.205-1.16,0.615C93.762,118.39,93.58,119.356,93.58,120.767z"/>
	</g>
	<g>
		<path d="M218.478,128.212h-0.703v-4.48c-0.169,0.162-0.392,0.323-0.666,0.484s-0.521,0.283-0.74,0.363v-0.68
			c0.394-0.185,0.737-0.409,1.031-0.672s0.503-0.518,0.625-0.766h0.453V128.212z"/>
	</g>
	<g>
		<g>
			<path class="st1" d="M50.688,90.784l-3.268-0.837l0.024-0.115l4.666-1.95c1.423-0.887,2.846-1.773,4.27-2.66
				c-0.919,1.402-1.839,2.804-2.759,4.206l-2.057,4.62l-0.104,0.034L50.688,90.784z"/>
		</g>
		<g>
			<line class="st2" x1="50.42" y1="91.045" x2="51.272" y2="90.213"/>
			<path class="st3" d="M50.688,90.784l-3.268-0.837l0.024-0.115l4.666-1.95c1.423-0.887,2.846-1.773,4.27-2.66
				c-0.919,1.402-1.839,2.804-2.759,4.206l-2.057,4.62l-0.104,0.034L50.688,90.784z"/>
		</g>
	</g>
	<g>
		<g>
			<path class="st1" d="M114.345,119.829l3.368-0.182l0.011,0.118l-3.866,3.259c-1.091,1.273-2.183,2.546-3.274,3.819
				c0.456-1.613,0.913-3.227,1.369-4.84l0.576-5.024l0.09-0.063L114.345,119.829z"/>
		</g>
		<g>
			<line class="st2" x1="114.522" y1="119.499" x2="113.959" y2="120.548"/>
			<path class="st3" d="M114.345,119.829l3.368-0.182l0.011,0.118l-3.866,3.259c-1.091,1.273-2.183,2.546-3.274,3.819
				c0.456-1.613,0.913-3.227,1.369-4.84l0.576-5.024l0.09-0.063L114.345,119.829z"/>
		</g>
	</g>
	<g>
		<g>
			<path class="st1" d="M156.529,134.36l3.322-0.584l0.025,0.115l-3.448,3.7c-0.931,1.395-1.862,2.789-2.793,4.184
				c0.26-1.656,0.52-3.313,0.779-4.97l-0.031-5.057l0.081-0.073L156.529,134.36z"/>
		</g>
		<g>
			<line class="st2" x1="156.665" y1="134.011" x2="156.232" y2="135.121"/>
			<path class="st3" d="M156.529,134.36l3.322-0.584l0.025,0.115l-3.448,3.7c-0.931,1.395-1.862,2.789-2.793,4.184
				c0.26-1.656,0.52-3.313,0.779-4.97l-0.031-5.057l0.081-0.073L156.529,134.36z"/>
		</g>
	</g>
	<g>
		<g>
			<path class="st1" d="M162.613,32.173l-5.032-0.531l0.011-0.176l6.501-3.909c1.919-1.626,3.838-3.252,5.758-4.877
				c-1.06,2.281-2.12,4.562-3.179,6.843l-2.047,7.304l-0.148,0.072L162.613,32.173z"/>
		</g>
		<g>
			<line class="st4" x1="140.394" y1="61.316" x2="163.355" y2="31.199"/>
			<path d="M162.984,31.686l-2.516-0.266l0.006-0.088l3.251-1.954c0.96-0.813,1.919-1.626,2.879-2.439
				c-0.53,1.141-1.06,2.281-1.589,3.422l-1.024,3.652l-0.074,0.036L162.984,31.686z"/>
		</g>
	</g>
	<path class="st4" d="M151.071,47.365c3.807,3.3,6.242,8.353,6.242,14.018c0,5.592-2.373,10.588-6.095,13.89"/>
	<g>
		<g>
			<path class="st1" d="M36.222,173.623l5.032,0.531l-0.011,0.176l-6.501,3.909c-1.919,1.626-3.838,3.252-5.757,4.878
				c1.059-2.281,2.12-4.562,3.179-6.843l2.047-7.304l0.148-0.072L36.222,173.623z"/>
		</g>
		<g>
			<line class="st4" x1="54.416" y1="149.759" x2="35.48" y2="174.597"/>
			<path d="M35.851,174.11l2.516,0.266l-0.006,0.088l-3.251,1.955c-0.959,0.813-1.919,1.626-2.879,2.439
				c0.53-1.141,1.06-2.281,1.589-3.422l1.024-3.652l0.074-0.036L35.851,174.11z"/>
		</g>
	</g>
	<path class="st4" d="M45.612,161.265c-3.14-2.721-5.148-6.889-5.148-11.561c0-4.612,1.957-8.732,5.027-11.455"/>
	<g>
		<path d="M174.208,58.712l-4.579,1.957v-0.844l3.626-1.504l-3.626-1.49v-0.844l4.579,1.933V58.712z"/>
		<path d="M175.27,60.137l0.815-0.076c0.069,0.384,0.201,0.662,0.396,0.835c0.194,0.173,0.444,0.259,0.749,0.259
			c0.262,0,0.49-0.06,0.687-0.179s0.357-0.279,0.483-0.479s0.231-0.469,0.316-0.809c0.085-0.339,0.127-0.685,0.127-1.038
			c0-0.038-0.002-0.094-0.005-0.169c-0.17,0.271-0.401,0.49-0.695,0.658c-0.294,0.168-0.612,0.252-0.955,0.252
			c-0.572,0-1.057-0.208-1.452-0.623c-0.396-0.415-0.595-0.962-0.595-1.641c0-0.701,0.207-1.266,0.62-1.693
			c0.413-0.428,0.932-0.642,1.554-0.642c0.45,0,0.861,0.121,1.233,0.363c0.373,0.242,0.655,0.587,0.849,1.035
			c0.193,0.448,0.29,1.096,0.29,1.945c0,0.883-0.096,1.587-0.287,2.11c-0.192,0.523-0.478,0.922-0.856,1.195s-0.822,0.41-1.332,0.41
			c-0.541,0-0.982-0.15-1.325-0.45S175.338,60.681,175.27,60.137z M178.745,57.085c0-0.487-0.13-0.874-0.39-1.16
			c-0.259-0.286-0.571-0.429-0.936-0.429c-0.378,0-0.706,0.154-0.986,0.462c-0.279,0.308-0.419,0.707-0.419,1.198
			c0,0.44,0.132,0.798,0.398,1.073c0.266,0.275,0.593,0.413,0.982,0.413c0.394,0,0.717-0.137,0.97-0.413
			C178.618,57.954,178.745,57.573,178.745,57.085z"/>
		<path d="M180.514,58.326c0-0.817,0.084-1.475,0.252-1.974c0.168-0.498,0.418-0.883,0.75-1.153
			c0.331-0.271,0.749-0.406,1.252-0.406c0.371,0,0.696,0.075,0.976,0.224c0.28,0.149,0.512,0.365,0.693,0.646
			c0.183,0.281,0.326,0.624,0.43,1.028c0.104,0.404,0.155,0.949,0.155,1.634c0,0.811-0.083,1.466-0.25,1.964
			c-0.166,0.498-0.416,0.883-0.747,1.155c-0.332,0.272-0.751,0.408-1.257,0.408c-0.667,0-1.19-0.239-1.57-0.717
			C180.741,60.561,180.514,59.624,180.514,58.326z M181.386,58.326c0,1.135,0.133,1.891,0.398,2.266s0.594,0.563,0.983,0.563
			s0.718-0.188,0.983-0.566s0.398-1.132,0.398-2.264c0-1.138-0.133-1.894-0.398-2.269c-0.266-0.374-0.597-0.561-0.993-0.561
			c-0.39,0-0.701,0.165-0.934,0.495C181.532,56.413,181.386,57.191,181.386,58.326z"/>
	</g>
	<g>
		<path d="M186.154,55.75c0-0.441,0.123-0.768,0.368-0.98c0.205-0.176,0.454-0.265,0.749-0.265c0.327,0,0.595,0.107,0.803,0.322
			s0.312,0.511,0.312,0.889c0,0.307-0.046,0.548-0.138,0.723c-0.092,0.176-0.226,0.312-0.401,0.41s-0.367,0.146-0.575,0.146
			c-0.334,0-0.604-0.107-0.809-0.321C186.257,56.46,186.154,56.152,186.154,55.75z M186.569,55.75c0,0.305,0.066,0.534,0.199,0.685
			c0.134,0.152,0.301,0.228,0.503,0.228c0.2,0,0.367-0.076,0.5-0.229s0.199-0.385,0.199-0.697c0-0.295-0.066-0.518-0.2-0.67
			c-0.134-0.151-0.301-0.228-0.499-0.228c-0.202,0-0.369,0.076-0.503,0.227C186.636,55.217,186.569,55.445,186.569,55.75z"/>
	</g>
	<g>
		<path d="M163.143,54.999v0.226c-0.385,0.223-0.671,0.456-0.858,0.7c-0.191,0.239-0.316,0.545-0.377,0.919
			c-0.065,0.401-0.097,0.734-0.097,0.998c0,0.414,0.041,0.789,0.122,1.125c0.085,0.377,0.203,0.688,0.353,0.931
			c0.154,0.268,0.333,0.473,0.536,0.615c0.203,0.138,0.46,0.237,0.772,0.298l-0.127-3.979c0-0.231,0.038-0.489,0.115-0.773
			c0.073-0.284,0.201-0.515,0.384-0.694c0.182-0.183,0.361-0.304,0.535-0.365c0.167-0.057,0.341-0.085,0.523-0.085
			c0.195,0,0.39,0.033,0.584,0.097c0.19,0.065,0.391,0.187,0.602,0.365c0.203,0.179,0.398,0.398,0.584,0.657
			c0.174,0.24,0.316,0.552,0.426,0.937c0.098,0.357,0.146,0.71,0.146,1.059c0,0.397-0.067,0.779-0.201,1.144
			c-0.126,0.365-0.304,0.69-0.536,0.974c-0.215,0.248-0.533,0.501-0.955,0.761c-0.43,0.251-0.862,0.377-1.296,0.377v2.641h-0.785
			v-2.629c-0.726-0.142-1.329-0.351-1.807-0.626c-0.511-0.272-0.852-0.72-1.022-1.345c-0.174-0.613-0.262-1.096-0.262-1.449
			c0-0.373,0.061-0.73,0.183-1.071c0.114-0.329,0.268-0.606,0.462-0.833c0.183-0.203,0.408-0.39,0.676-0.56
			c0.255-0.162,0.493-0.274,0.712-0.334C162.733,55.025,162.936,54.999,163.143,54.999z M164.226,57.433l0.152,3.414
			c0.215-0.041,0.464-0.107,0.749-0.201c0.183-0.061,0.373-0.215,0.572-0.462c0.215-0.292,0.343-0.491,0.384-0.597
			c0.073-0.187,0.124-0.34,0.152-0.462c0.008-0.028,0.02-0.085,0.034-0.17c0.014-0.085,0.023-0.144,0.027-0.176
			c0.008-0.049,0.012-0.148,0.012-0.298c0-0.28-0.024-0.562-0.073-0.846c-0.044-0.272-0.12-0.525-0.225-0.761
			c-0.097-0.215-0.231-0.42-0.401-0.615c-0.154-0.178-0.291-0.294-0.408-0.347c-0.13-0.041-0.226-0.061-0.286-0.061
			c-0.199,0-0.341,0.061-0.426,0.183c-0.085,0.138-0.148,0.355-0.188,0.651C164.25,56.98,164.226,57.23,164.226,57.433z"/>
	</g>
	<g>
		<g>
			<path d="M22.844,150.603l-4.579,1.957v-0.844l3.626-1.504l-3.626-1.49v-0.844l4.579,1.933V150.603z"/>
			<path d="M23.905,152.027l0.816-0.076c0.069,0.384,0.201,0.662,0.396,0.835s0.445,0.259,0.75,0.259c0.261,0,0.49-0.06,0.686-0.179
				c0.197-0.12,0.358-0.279,0.483-0.479c0.126-0.2,0.231-0.469,0.316-0.809c0.085-0.339,0.127-0.685,0.127-1.038
				c0-0.038-0.001-0.094-0.005-0.169c-0.169,0.271-0.401,0.49-0.695,0.658c-0.294,0.168-0.612,0.252-0.955,0.252
				c-0.572,0-1.056-0.208-1.453-0.623c-0.396-0.415-0.594-0.962-0.594-1.641c0-0.701,0.207-1.266,0.62-1.693
				c0.414-0.428,0.932-0.642,1.554-0.642c0.449,0,0.86,0.121,1.233,0.363s0.656,0.587,0.849,1.035
				c0.193,0.448,0.29,1.096,0.29,1.945c0,0.883-0.096,1.587-0.288,2.11c-0.192,0.523-0.477,0.922-0.856,1.195
				s-0.823,0.41-1.333,0.41c-0.541,0-0.982-0.15-1.325-0.45S23.974,152.571,23.905,152.027z M27.38,148.976
				c0-0.487-0.129-0.874-0.389-1.16c-0.259-0.286-0.571-0.429-0.936-0.429c-0.377,0-0.706,0.154-0.985,0.462
				c-0.28,0.308-0.42,0.707-0.42,1.198c0,0.44,0.133,0.798,0.398,1.073c0.266,0.275,0.593,0.413,0.983,0.413
				c0.393,0,0.716-0.137,0.969-0.413C27.254,149.844,27.38,149.463,27.38,148.976z"/>
			<path d="M29.149,150.216c0-0.817,0.084-1.475,0.252-1.974c0.168-0.498,0.418-0.883,0.75-1.153
				c0.332-0.271,0.749-0.406,1.252-0.406c0.371,0,0.696,0.075,0.976,0.224s0.511,0.365,0.693,0.646
				c0.182,0.281,0.325,0.624,0.429,1.028c0.104,0.404,0.155,0.949,0.155,1.634c0,0.811-0.083,1.466-0.25,1.964
				c-0.167,0.498-0.416,0.883-0.747,1.155c-0.332,0.272-0.751,0.408-1.257,0.408c-0.667,0-1.19-0.239-1.57-0.717
				C29.377,152.451,29.149,151.514,29.149,150.216z M30.021,150.216c0,1.135,0.133,1.891,0.398,2.266s0.593,0.563,0.983,0.563
				c0.39,0,0.717-0.188,0.983-0.566c0.266-0.377,0.399-1.132,0.399-2.264c0-1.138-0.133-1.894-0.399-2.269
				c-0.266-0.374-0.596-0.561-0.993-0.561c-0.39,0-0.701,0.165-0.934,0.495C30.167,148.303,30.021,149.081,30.021,150.216z"/>
		</g>
		<g>
			<path d="M34.791,147.641c0-0.441,0.123-0.768,0.368-0.98c0.205-0.176,0.454-0.265,0.749-0.265c0.327,0,0.595,0.107,0.803,0.322
				s0.312,0.511,0.312,0.889c0,0.307-0.046,0.548-0.138,0.723c-0.092,0.176-0.226,0.312-0.401,0.41s-0.368,0.146-0.575,0.146
				c-0.333,0-0.603-0.107-0.809-0.321C34.894,148.351,34.791,148.043,34.791,147.641z M35.206,147.641
				c0,0.305,0.066,0.534,0.2,0.685c0.133,0.152,0.3,0.228,0.502,0.228c0.2,0,0.367-0.076,0.5-0.229c0.133-0.152,0.2-0.385,0.2-0.697
				c0-0.295-0.067-0.518-0.201-0.67c-0.134-0.151-0.3-0.228-0.499-0.228c-0.202,0-0.37,0.076-0.502,0.227
				C35.272,147.107,35.206,147.335,35.206,147.641z"/>
		</g>
		<g>
			<path d="M11.779,146.889v0.226c-0.385,0.223-0.671,0.456-0.858,0.7c-0.191,0.239-0.316,0.545-0.377,0.919
				c-0.065,0.401-0.097,0.734-0.097,0.998c0,0.414,0.041,0.789,0.122,1.125c0.085,0.377,0.203,0.688,0.353,0.931
				c0.154,0.268,0.333,0.473,0.536,0.615c0.203,0.138,0.46,0.237,0.772,0.298l-0.127-3.979c0-0.231,0.038-0.489,0.115-0.773
				c0.073-0.284,0.201-0.515,0.384-0.694c0.182-0.183,0.361-0.304,0.535-0.365c0.167-0.057,0.341-0.085,0.523-0.085
				c0.195,0,0.39,0.033,0.584,0.097c0.19,0.065,0.391,0.187,0.602,0.365c0.203,0.179,0.398,0.398,0.584,0.657
				c0.174,0.24,0.316,0.552,0.426,0.937c0.098,0.357,0.146,0.71,0.146,1.059c0,0.397-0.067,0.779-0.201,1.144
				c-0.126,0.365-0.304,0.69-0.536,0.974c-0.215,0.248-0.533,0.501-0.955,0.761c-0.43,0.251-0.862,0.377-1.296,0.377v2.641h-0.785
				v-2.629c-0.726-0.142-1.329-0.351-1.807-0.626c-0.511-0.272-0.852-0.72-1.022-1.345c-0.174-0.613-0.262-1.096-0.262-1.449
				c0-0.373,0.061-0.73,0.183-1.071c0.114-0.329,0.268-0.606,0.462-0.833c0.183-0.203,0.408-0.39,0.676-0.56
				c0.255-0.162,0.493-0.274,0.712-0.334C11.369,146.916,11.572,146.889,11.779,146.889z M12.862,149.324l0.152,3.414
				c0.215-0.041,0.464-0.107,0.749-0.201c0.183-0.061,0.373-0.215,0.572-0.462c0.215-0.292,0.343-0.491,0.384-0.597
				c0.073-0.187,0.124-0.34,0.152-0.462c0.008-0.028,0.02-0.085,0.034-0.17c0.014-0.085,0.023-0.144,0.027-0.176
				c0.008-0.049,0.012-0.148,0.012-0.298c0-0.28-0.024-0.562-0.073-0.846c-0.044-0.272-0.12-0.525-0.225-0.761
				c-0.097-0.215-0.231-0.42-0.401-0.615c-0.154-0.178-0.291-0.294-0.408-0.347c-0.13-0.041-0.226-0.061-0.286-0.061
				c-0.199,0-0.341,0.061-0.426,0.183c-0.085,0.138-0.148,0.355-0.188,0.651C12.886,148.871,12.862,149.121,12.862,149.324z"/>
		</g>
	</g>
	<g>
		<g>
			<path d="M177.516,97.472c-0.487,0.56-0.997,0.839-1.528,0.839c-0.475,0-0.87-0.175-1.186-0.526
				c-0.316-0.351-0.474-0.859-0.474-1.526c0-0.61,0.125-1.167,0.374-1.671c0.25-0.505,0.563-0.883,0.938-1.134
				c0.376-0.251,0.753-0.377,1.13-0.377c0.622,0,1.093,0.3,1.41,0.901l0.565-2.693h0.85l-1.443,6.914h-0.787L177.516,97.472z
				 M175.177,96.1c0,0.349,0.034,0.624,0.104,0.825s0.188,0.369,0.354,0.502c0.167,0.134,0.366,0.2,0.6,0.2
				c0.387,0,0.736-0.201,1.051-0.604c0.422-0.534,0.633-1.195,0.633-1.98c0-0.396-0.104-0.706-0.312-0.929
				c-0.208-0.223-0.469-0.335-0.783-0.335c-0.204,0-0.391,0.046-0.559,0.137c-0.168,0.091-0.335,0.246-0.5,0.465
				c-0.165,0.218-0.304,0.496-0.417,0.832S175.177,95.845,175.177,96.1z"/>
			<path d="M178.883,98.198l3.302-3.495l-1.957-3.419h1.019l0.892,1.565c0.235,0.412,0.37,0.653,0.405,0.722
				c0.082,0.154,0.171,0.338,0.269,0.552c0.232-0.314,0.593-0.728,1.08-1.24l1.519-1.599h1.207l-3.344,3.57l1.896,3.344h-1.005
				l-1.122-2.023c-0.11-0.198-0.237-0.453-0.382-0.764c-0.17,0.229-0.378,0.473-0.623,0.731l-1.929,2.056H178.883z"/>
		</g>
		<g>
			<path d="M179.395,107.265c-0.487,0.56-0.997,0.839-1.528,0.839c-0.475,0-0.87-0.175-1.186-0.526
				c-0.316-0.351-0.474-0.859-0.474-1.526c0-0.61,0.125-1.167,0.374-1.671c0.25-0.505,0.563-0.883,0.938-1.134
				c0.376-0.251,0.753-0.377,1.13-0.377c0.622,0,1.093,0.3,1.41,0.901l0.565-2.693h0.85l-1.443,6.914h-0.787L179.395,107.265z
				 M177.056,105.892c0,0.349,0.034,0.624,0.104,0.825s0.188,0.369,0.354,0.502c0.167,0.134,0.366,0.2,0.6,0.2
				c0.387,0,0.736-0.201,1.051-0.604c0.422-0.534,0.633-1.195,0.633-1.98c0-0.396-0.104-0.706-0.312-0.929
				c-0.208-0.223-0.469-0.335-0.783-0.335c-0.204,0-0.391,0.046-0.559,0.137c-0.168,0.091-0.335,0.246-0.5,0.465
				c-0.165,0.218-0.304,0.496-0.417,0.832S177.056,105.638,177.056,105.892z"/>
			<path d="M183.385,107.297l-0.142,0.698c-0.205,0.053-0.403,0.08-0.595,0.08c-0.34,0-0.609-0.083-0.811-0.25
				c-0.151-0.125-0.227-0.297-0.227-0.514c0-0.11,0.041-0.363,0.122-0.759l0.608-2.91h-0.674l0.137-0.66h0.674l0.26-1.231
				l0.977-0.589l-0.383,1.82h0.84l-0.142,0.66h-0.835l-0.58,2.768c-0.072,0.353-0.108,0.563-0.108,0.632
				c0,0.101,0.029,0.178,0.088,0.231c0.058,0.053,0.153,0.08,0.285,0.08C183.068,107.354,183.236,107.335,183.385,107.297z"/>
		</g>
		<line class="st5" x1="174.191" y1="99.778" x2="185.258" y2="99.778"/>
	</g>
	<g>
		<g>
			<path d="M17.304,112.821c-0.487,0.56-0.997,0.839-1.528,0.839c-0.475,0-0.87-0.175-1.186-0.526s-0.474-0.859-0.474-1.526
				c0-0.61,0.125-1.167,0.375-1.671c0.25-0.505,0.562-0.883,0.938-1.134c0.375-0.251,0.752-0.377,1.129-0.377
				c0.623,0,1.093,0.3,1.41,0.901l0.566-2.693h0.849l-1.443,6.914h-0.788L17.304,112.821z M14.965,111.448
				c0,0.349,0.034,0.624,0.104,0.825s0.187,0.369,0.354,0.502c0.167,0.134,0.366,0.2,0.599,0.2c0.387,0,0.737-0.201,1.052-0.604
				c0.421-0.534,0.632-1.195,0.632-1.98c0-0.396-0.104-0.706-0.311-0.929s-0.469-0.335-0.783-0.335
				c-0.204,0-0.391,0.046-0.559,0.137c-0.168,0.091-0.335,0.246-0.5,0.465c-0.165,0.218-0.304,0.496-0.417,0.832
				S14.965,111.194,14.965,111.448z"/>
			<path d="M18.671,113.547l3.301-3.495l-1.957-3.419h1.019l0.891,1.565c0.236,0.412,0.371,0.653,0.406,0.722
				c0.082,0.154,0.171,0.338,0.269,0.552c0.233-0.314,0.593-0.728,1.08-1.24l1.519-1.599h1.208l-3.344,3.57l1.896,3.344h-1.005
				l-1.122-2.023c-0.11-0.198-0.238-0.453-0.382-0.764c-0.169,0.229-0.377,0.473-0.623,0.731l-1.929,2.056H18.671z"/>
		</g>
		<g>
			<path d="M19.183,122.613c-0.487,0.56-0.997,0.839-1.528,0.839c-0.475,0-0.87-0.175-1.186-0.526s-0.474-0.859-0.474-1.526
				c0-0.61,0.125-1.167,0.375-1.671c0.25-0.505,0.562-0.883,0.938-1.134c0.375-0.251,0.752-0.377,1.129-0.377
				c0.623,0,1.093,0.3,1.41,0.901l0.566-2.693h0.849l-1.443,6.914h-0.788L19.183,122.613z M16.844,121.241
				c0,0.349,0.034,0.624,0.104,0.825s0.187,0.369,0.354,0.502c0.167,0.134,0.366,0.2,0.599,0.2c0.387,0,0.737-0.201,1.052-0.604
				c0.421-0.534,0.632-1.195,0.632-1.98c0-0.396-0.104-0.706-0.311-0.929s-0.469-0.335-0.783-0.335
				c-0.204,0-0.391,0.046-0.559,0.137c-0.168,0.091-0.335,0.246-0.5,0.465c-0.165,0.218-0.304,0.496-0.417,0.832
				S16.844,120.986,16.844,121.241z"/>
			<path d="M23.173,122.646l-0.142,0.698c-0.204,0.053-0.402,0.08-0.594,0.08c-0.339,0-0.61-0.083-0.811-0.25
				c-0.151-0.125-0.227-0.297-0.227-0.514c0-0.11,0.041-0.363,0.123-0.759l0.608-2.91h-0.675l0.137-0.66h0.675l0.259-1.231
				l0.976-0.589l-0.382,1.82h0.839l-0.142,0.66h-0.834l-0.58,2.768c-0.072,0.353-0.108,0.563-0.108,0.632
				c0,0.101,0.029,0.178,0.087,0.231s0.153,0.08,0.286,0.08C22.857,122.703,23.025,122.684,23.173,122.646z"/>
		</g>
		<line class="st5" x1="13.98" y1="115.127" x2="25.047" y2="115.127"/>
	</g>
	<g>
		<path d="M18.709,188.594l0.863,0.08c-0.006,0.195,0.017,0.341,0.071,0.439c0.053,0.097,0.138,0.173,0.254,0.226
			c0.154,0.069,0.354,0.104,0.599,0.104c0.516,0,0.886-0.134,1.113-0.401c0.148-0.179,0.285-0.569,0.41-1.17l0.085-0.405
			c-0.443,0.45-0.915,0.674-1.415,0.674c-0.506,0-0.93-0.187-1.271-0.559c-0.341-0.373-0.512-0.9-0.512-1.582
			c0-0.562,0.134-1.08,0.403-1.551c0.269-0.472,0.588-0.828,0.959-1.068s0.753-0.361,1.146-0.361c0.657,0,1.163,0.312,1.519,0.934
			l0.17-0.82h0.783l-1.009,4.834c-0.11,0.531-0.254,0.945-0.434,1.243c-0.179,0.297-0.429,0.527-0.748,0.691
			c-0.319,0.163-0.688,0.245-1.106,0.245c-0.402,0-0.749-0.052-1.04-0.156c-0.291-0.104-0.508-0.255-0.651-0.455
			s-0.214-0.428-0.214-0.686C18.686,188.771,18.694,188.686,18.709,188.594z M19.775,185.925c0,0.342,0.033,0.601,0.099,0.773
			c0.094,0.242,0.229,0.427,0.403,0.554c0.174,0.127,0.368,0.191,0.582,0.191c0.28,0,0.558-0.099,0.835-0.295
			c0.276-0.196,0.5-0.5,0.672-0.913c0.171-0.412,0.257-0.805,0.257-1.179c0-0.412-0.114-0.739-0.342-0.983s-0.51-0.366-0.846-0.366
			c-0.208,0-0.409,0.056-0.604,0.167c-0.195,0.112-0.376,0.281-0.544,0.509c-0.168,0.228-0.295,0.501-0.382,0.818
			C19.818,185.521,19.775,185.762,19.775,185.925z"/>
		<path d="M24.128,188.142l1.047-5.008h0.754l-0.212,1.023c0.258-0.387,0.51-0.673,0.757-0.858c0.247-0.186,0.499-0.278,0.757-0.278
			c0.169,0,0.379,0.062,0.627,0.184l-0.349,0.792c-0.148-0.106-0.31-0.16-0.486-0.16c-0.299,0-0.605,0.167-0.92,0.5
			c-0.314,0.333-0.561,0.932-0.74,1.797l-0.424,2.009H24.128z"/>
		<path d="M30.721,187.519c-0.295,0.255-0.58,0.441-0.854,0.559c-0.274,0.118-0.566,0.177-0.877,0.177
			c-0.462,0-0.834-0.136-1.118-0.408c-0.283-0.272-0.424-0.62-0.424-1.044c0-0.28,0.063-0.527,0.191-0.743s0.296-0.388,0.507-0.519
			c0.211-0.13,0.469-0.224,0.773-0.28c0.192-0.038,0.556-0.068,1.092-0.09s0.92-0.079,1.153-0.169
			c0.066-0.233,0.099-0.426,0.099-0.58c0-0.198-0.073-0.354-0.217-0.467c-0.198-0.157-0.487-0.235-0.868-0.235
			c-0.358,0-0.651,0.079-0.879,0.238s-0.394,0.384-0.498,0.677l-0.863-0.075c0.176-0.497,0.455-0.877,0.837-1.142
			c0.382-0.264,0.864-0.396,1.445-0.396c0.619,0,1.11,0.148,1.471,0.443c0.277,0.22,0.415,0.506,0.415,0.858
			c0,0.267-0.039,0.577-0.118,0.929l-0.278,1.245c-0.088,0.396-0.132,0.719-0.132,0.967c0,0.157,0.034,0.384,0.104,0.679H30.82
			C30.773,187.978,30.74,187.771,30.721,187.519z M31.037,185.604c-0.12,0.047-0.248,0.083-0.384,0.108
			c-0.137,0.025-0.366,0.052-0.687,0.08c-0.497,0.044-0.847,0.1-1.051,0.167c-0.205,0.068-0.358,0.175-0.462,0.323
			c-0.104,0.147-0.156,0.311-0.156,0.49c0,0.239,0.083,0.436,0.248,0.589c0.165,0.154,0.4,0.231,0.705,0.231
			c0.283,0,0.555-0.075,0.816-0.224c0.261-0.149,0.467-0.358,0.618-0.625C30.834,186.479,30.952,186.098,31.037,185.604z"/>
		<path d="M36.093,187.416c-0.488,0.56-0.997,0.839-1.528,0.839c-0.475,0-0.87-0.175-1.186-0.526s-0.474-0.859-0.474-1.526
			c0-0.61,0.125-1.167,0.375-1.671c0.25-0.505,0.563-0.883,0.938-1.134c0.376-0.251,0.752-0.377,1.13-0.377
			c0.622,0,1.092,0.3,1.41,0.901l0.566-2.693h0.849l-1.443,6.914h-0.787L36.093,187.416z M33.753,186.043
			c0,0.349,0.035,0.624,0.104,0.825c0.069,0.201,0.187,0.369,0.354,0.502s0.366,0.2,0.599,0.2c0.387,0,0.737-0.201,1.051-0.604
			c0.421-0.534,0.632-1.195,0.632-1.98c0-0.396-0.104-0.706-0.312-0.929s-0.468-0.335-0.783-0.335c-0.205,0-0.391,0.046-0.559,0.137
			c-0.168,0.091-0.334,0.246-0.5,0.465c-0.165,0.218-0.304,0.496-0.417,0.832S33.753,185.789,33.753,186.043z"/>
		<path d="M42.978,188.142l-1.33-6.914h0.891l0.802,4.122c0.148,0.749,0.244,1.352,0.288,1.811c0.289-0.591,0.526-1.06,0.712-1.405
			l2.466-4.527h0.953l-3.792,6.914H42.978z"/>
	</g>
	<g>
		<g>
			<path d="M74.982,10.295l2.707-3.158l-1.553-3.064h1.172l0.527,1.107c0.195,0.414,0.371,0.811,0.527,1.189l1.793-2.297h1.295
				l-2.613,3.146l1.57,3.076h-1.172l-0.621-1.266c-0.133-0.27-0.283-0.604-0.451-1.002l-1.852,2.268H74.982z"/>
		</g>
		<g>
			<path d="M85.553,12.783v0.676h-3.785c-0.005-0.169,0.022-0.332,0.082-0.488c0.096-0.258,0.25-0.512,0.463-0.762
				s0.519-0.539,0.92-0.867c0.623-0.51,1.043-0.915,1.262-1.213s0.328-0.58,0.328-0.846c0-0.279-0.1-0.514-0.299-0.705
				s-0.459-0.287-0.779-0.287c-0.338,0-0.609,0.102-0.812,0.305s-0.306,0.484-0.309,0.844L81.9,9.365
				c0.049-0.539,0.236-0.95,0.559-1.232s0.756-0.424,1.301-0.424c0.549,0,0.984,0.152,1.305,0.457s0.48,0.682,0.48,1.133
				c0,0.229-0.047,0.455-0.141,0.676s-0.25,0.455-0.467,0.699s-0.579,0.581-1.084,1.008c-0.422,0.354-0.693,0.594-0.812,0.721
				s-0.219,0.253-0.297,0.381H85.553z"/>
		</g>
	</g>
	<g>
		<g>
			<line class="st0" x1="209.386" y1="113.258" x2="0" y2="113.258"/>
			<g>
				<path d="M208.04,113.258l-1.644,2.702l0.092,0.061l4.406-1.75c1.535-0.338,3.07-0.675,4.605-1.013
					c-1.535-0.338-3.07-0.675-4.605-1.013l-4.406-1.75l-0.092,0.046L208.04,113.258z"/>
			</g>
		</g>
	</g>
	<circle class="st6" cx="90.025" cy="113.371" r="1.516"/>
	<g>
		<g>
			<g>
				<g>
					<path class="st7" d="M90.059,113.359c0-11.207-16.903-11.253-16.903,0.094"/>
					<path class="st7" d="M115.552,113.549c0,25.388-42.397,25.495-42.397-0.213"/>
				</g>
				<path class="st7" d="M115.552,113.834c0-47.529-72.834-47.729-72.834,0.4"/>
			</g>
			<path class="st7" d="M159.721,114.584c0,74.092-117.003,74.403-117.003-0.624"/>
		</g>
		<path class="st7" d="M159.721,114.65c0-30.841-14.303-52.949-34.774-66.271"/>
	</g>
	<g>
		<g>
			<path class="st1" d="M32.817,121.69l-1.814,4.724l-0.167-0.057l-2.095-7.291c-1.075-2.274-2.149-4.548-3.223-6.822
				c1.929,1.613,3.859,3.227,5.789,4.84l6.527,3.866l0.031,0.162L32.817,121.69z"/>
		</g>
		<g>
			<line class="st4" x1="54.395" y1="149.614" x2="32.068" y2="120.721"/>
			<path d="M32.442,121.206l-0.907,2.362l-0.083-0.028l-1.048-3.646c-0.537-1.137-1.074-2.274-1.611-3.411
				c0.964,0.807,1.93,1.613,2.894,2.42l3.263,1.933l0.016,0.081L32.442,121.206z"/>
		</g>
	</g>
	<circle class="st8" cx="54.375" cy="149.549" r="1.078"/>
	<g>
		<g>
			<path class="st1" d="M166.743,95.557l1.814-4.723l0.167,0.056l2.095,7.291c1.075,2.274,2.15,4.548,3.224,6.822
				c-1.93-1.613-3.859-3.227-5.789-4.84l-6.526-3.866l-0.032-0.162L166.743,95.557z"/>
		</g>
		<g>
			<line class="st4" x1="140.42" y1="61.492" x2="167.492" y2="96.526"/>
			<path d="M167.118,96.042l0.907-2.362l0.084,0.028l1.047,3.646c0.537,1.137,1.074,2.274,1.611,3.411
				c-0.964-0.807-1.929-1.613-2.895-2.42l-3.263-1.933l-0.016-0.081L167.118,96.042z"/>
		</g>
	</g>
	<g>
		<path d="M129.51,71.795l4.869-8.59h1.354l1.418,8.59h-1.113l-0.416-2.473h-3.475l-1.377,2.473H129.51z M132.639,68.438h2.842
			l-0.334-2.156c-0.129-0.855-0.209-1.568-0.24-2.139c-0.195,0.492-0.48,1.076-0.855,1.752L132.639,68.438z"/>
	</g>
	<g>
		<path d="M59.77,150.045l1.799-8.59h2.66c0.484,0,0.844,0.02,1.078,0.059c0.383,0.066,0.706,0.183,0.97,0.349
			s0.468,0.393,0.612,0.68s0.217,0.604,0.217,0.952c0,0.473-0.13,0.889-0.39,1.248s-0.657,0.633-1.192,0.82
			c0.465,0.152,0.812,0.382,1.043,0.688s0.346,0.665,0.346,1.075c0,0.473-0.136,0.926-0.407,1.359s-0.631,0.769-1.078,1.005
			s-0.946,0.354-1.497,0.354H59.77z M61.123,149.072h1.957c0.52,0,0.869-0.018,1.049-0.053c0.363-0.062,0.658-0.169,0.885-0.319
			s0.404-0.349,0.533-0.595s0.193-0.504,0.193-0.773c0-0.402-0.126-0.708-0.378-0.917s-0.731-0.313-1.438-0.313h-2.18
			L61.123,149.072z M61.949,145.123h1.74c0.832,0,1.431-0.133,1.796-0.398s0.548-0.652,0.548-1.16c0-0.242-0.057-0.451-0.17-0.627
			s-0.265-0.304-0.454-0.384s-0.546-0.12-1.069-0.12h-1.828L61.949,145.123z"/>
	</g>
	<circle class="st8" cx="140.375" cy="61.383" r="1.078"/>
</g>
<g>
	<g>
	</g>
</g>
</svg>
